# xmcd CD database file
#
# Track frame offsets:
#	150
#	16050
#	33175
#	51945
#	71025
#	88492
#	104067
#	117742
#	132340
#	157162
#	175135
#	199605
#	230102
#
# Disc length: 3823 seconds
#
# Revision: 6
# Processed by: cddbd v1.5.2PL0 Copyright (c) Steve Scherf et al.
# Submitted via: CDex 1.51
#
DISCID=c10eed0d
DTITLE=Chris Knight - Chris Knight
DYEAR=1998
DGENRE=Country
TTITLE0=It Ain't Easy Being Me
TTITLE1=Framed
TTITLE2=Bring The Harvest Home
TTITLE3=Something Changed
TTITLE4=House And 90 Acres
TTITLE5=Summer Of '75
TTITLE6=Run From Your Memory
TTITLE7=Love And A .45
TTITLE8=The Hammer Going Down
TTITLE9=The Band Is Playing Too Slow
TTITLE10=The River's Own
TTITLE11=William
TTITLE12=Enhanced Cd Data
EXTD=YEAR: 1998
EXTT0=
EXTT1=
EXTT2=
EXTT3=
EXTT4=
EXTT5=
EXTT6=
EXTT7=
EXTT8=
EXTT9=
EXTT10=
EXTT11=
EXTT12=
PLAYORDER=
